<svg xmlns="http://www.w3.org/2000/svg" viewBox="0 0 24 24" id="Playstation"><path d="M24 13.102c0-.457-.15-.891-.45-1.157l-.001-.013a.038.038 0 0 1 0-.054c.3-.243.45-.61.45-1.033 0-.757-.474-1.342-1.446-1.342h-6.057a.037.037 0 0 0-.036.037v.462c0 .019.02.039.04.039h5.7c.48 0 .715.34.715.807s-.23.807-.712.807h-5.7c-.02 0-.036.019-.036.039v.467c0 .019.016.033.037.033h5.7c.63.007.71.603.71.904v.058c0 .472-.23.81-.71.81h-5.7c-.02 0-.036.014-.036.033v.464c0 .019.015.036.036.036h6.05c.973 0 1.446-.627 1.446-1.342v-.055zM12.215 9.503c-.97 0-1.447.584-1.447 1.342v2.301c0 .47-.228.807-.71.807H7.304a.035.035 0 0 0-.035.034v.457c0 .019.01.031.03.031h3.11c.97 0 1.45-.581 1.45-1.339v-2.299c0-.471.225-.809.71-.809h2.782c.02 0 .04-.014.04-.032v-.462c0-.018-.018-.029-.036-.031h-3.14zM15.35 9.5l.004.003h.008zM5.732 11.65H1.228c-.7 0-1.227.571-1.227 1.329v1.472c0 .019.02.036.04.036h1.03c.02 0 .04-.016.04-.036v-1.472c0-.467.28-.797.68-.797H6.1c.97 0 1.444-.579 1.444-1.337 0-.757-.473-1.342-1.442-1.342H.038c-.022 0-.038.016-.038.034v.464c0 .019.016.035.038.035h5.694c.48 0 .71.337.71.807s-.228.807-.71.807z" fill="#ffffff" class="color000000 svgShape"></path></svg>