<svg xmlns="http://www.w3.org/2000/svg" viewBox="0 0 24 24" id="Playstation"><path d="M22.618 9.5h-.3a1.136 1.136 0 0 0-.303.129l-6.181 3.72c-.24.146-.323.31-.263.434.048.101.185.177.454.177l-.004.004h5.739c.017 0 .03.012.03.023v.471c0 .023.017.035.035.035h1.035c.018 0 .036-.01.036-.035v-.463c0-.018.02-.035.04-.035h1.028a.034.034 0 0 0 .036-.035v-.472c0-.017-.01-.035-.035-.035h-1.03c-.02 0-.037-.017-.037-.034V10.01c0-.276-.104-.451-.28-.51zm-.822 3.89c0 .018-.015.035-.033.035h-4.817c-.04 0-.06-.012-.065-.023-.006-.023.005-.041.036-.058l4.789-2.888c.03-.023.09-.018.09.047v2.887zm-9.42-3.89c-.792.097-1.18.637-1.18 1.323v2.326c0 .471-.233.811-.71.811H7.333c-.018 0-.036.012-.036.035v.463c0 .02.01.034.023.039h3.583c.933-.024 1.393-.604 1.393-1.351l.006.004v-2.327c0-.475.227-.814.712-.814h2.989c.017 0 .035-.017.035-.035v-.462c0-.004 0-.008-.003-.012h-3.659zm-6.011.004H.006c0 .003-.006.005-.006.01v.463c0 .023.013.035.037.035h5.697c.484 0 .712.341.712.813s-.227.815-.712.815H1.227c-.7 0-1.226.577-1.226 1.338v1.481c0 .019.01.035.028.039l-.004.002h1.05a.042.042 0 0 0 .025-.039V12.98c0-.476.275-.803.676-.803h4.323c.974 0 1.446-.585 1.446-1.349-.001-.689-.388-1.227-1.18-1.324z" fill="#ffffff" class="color000000 svgShape"></path></svg>